<?xml version="1.0" encoding="UTF-8"?>
<svg width="81px" height="28px" viewBox="0 0 81 28" version="1.1" xmlns="http://www.w3.org/2000/svg" xmlns:xlink="http://www.w3.org/1999/xlink">
    <!-- Generator: Sketch 47.1 (45422) - http://www.bohemiancoding.com/sketch -->
    <title>GXC</title>
    <desc>Created with Sketch.</desc>
    <defs></defs>
    <g id="Page-1" stroke="none" stroke-width="1" fill="none" fill-rule="evenodd">
        <g id="Desktop-HD" transform="translate(-680.000000, -12395.000000)" fill="#FFFFFF">
            <g id="Footer" transform="translate(0.000000, 12175.000000)">
                <g id="GXC" transform="translate(680.000000, 220.000000)">
                    <polygon id="Fill-1" points="41.0000653 12.8923887 28.1076765 0 27 1.10754598 39.8923887 13.9999347 27 26.8923235 28.1076765 28 41.0000653 15.1076113 53.892454 28 55 26.8923235 42.1076113 13.9999347 55 1.10754598 53.892454 0"></polygon>
                    <path d="M14.1578459,0 L0,14.1577799 L13.8421541,28 L28,13.8422201 L14.1578459,0 Z M2.21467157,14.1577799 L14.1578459,2.21466125 L25.0295734,13.0864685 L14.1829029,13.0864685 L14.1829029,14.6525225 L24.9748918,14.6525225 L13.8421541,25.7852082 L2.21467157,14.1577799 Z" id="Fill-2"></path>
                    <polygon id="Fill-3" points="54 14.1577799 67.784151 28 80.945678 14.783027 78.7401774 14.783027 67.784151 25.7852082 56.2055006 14.1577799 68.098517 2.21479175 78.7946294 12.9559641 81 12.9559641 68.098517 0"></polygon>
                </g>
            </g>
        </g>
    </g>
</svg>