<?xml version="1.0" encoding="UTF-8"?>
<svg width="186px" height="140px" viewBox="0 0 186 140" version="1.1" xmlns="http://www.w3.org/2000/svg" xmlns:xlink="http://www.w3.org/1999/xlink">
    <!-- Generator: Sketch 48.2 (47327) - http://www.bohemiancoding.com/sketch -->
    <title>GXC</title>
    <desc>Created with Sketch.</desc>
    <defs></defs>
    <g id="Desktop-HD" stroke="none" stroke-width="1" fill="none" fill-rule="evenodd" transform="translate(-627.000000, -2845.000000)">
        <g id="GXC" transform="translate(627.000000, 2845.000000)" fill="#4A4A4A">
            <path d="M92.7224516,2.15053763e-05 L45.5820215,47.1406667 L92.7224516,94.2810968 L139.863097,47.1406667 L92.7224516,2.15053763e-05 Z M48.6233118,47.1406667 L92.7224516,3.04152688 L136.821591,47.1406667 L92.7224516,91.2398065 L48.6233118,47.1406667 Z" id="Fill-1"></path>
            <path d="M91.2017419,92.7604086 L138.342387,139.900839 L185.482817,92.7604086 L138.342387,45.6199785 L91.2017419,92.7604086 Z M94.2432473,92.7604086 L138.342387,48.6612688 L182.441312,92.7604086 L138.342387,136.859548 L94.2432473,92.7604086 Z" id="Fill-2"></path>
            <polygon id="Fill-3" points="95.3184516 91.6851398 93.167914 91.6851398 94.2431828 92.7604086"></polygon>
            <polygon id="Fill-4" points="1.02309677 91.6850538 8.60215054e-05 92.7082796 0.0071827957 92.7155914 1.03772043 91.6850538"></polygon>
            <polygon id="Fill-5" points="90.1265806 93.8357634 47.1027097 136.859419 4.07905376 93.8357634 1.12744086 93.8357634 14.8388387 107.547161 14.7938925 107.592108 47.1027097 139.900925 93.168086 93.8357634"></polygon>
            <polygon id="Fill-6" points="47.1027312 48.6613548 90.1266022 91.6852258 93.1678925 91.6852258 47.1027312 45.6198495 1.03756989 91.6852258 4.07886022 91.6852258"></polygon>
            <polygon id="Fill-7" points="94.2431828 92.7604086 93.167914 93.8356774 95.3184516 93.8356774"></polygon>
            <polygon id="Fill-8" points="90.1265806 91.6850538 4.07905376 91.6850538 1.03754839 91.6850538 0.00722580645 92.7155914 1.12744086 93.8358065 4.07905376 93.8358065 90.1265806 93.8358065 93.168086 93.8358065 94.2431398 92.7603226 93.168086 91.6850538"></polygon>
            <polygon id="Fill-9" points="1.12735484 93.8356774 1.03746237 93.8356774 14.7938065 107.592022 14.8387527 107.547075"></polygon>
        </g>
    </g>
</svg>