<?xml version="1.0" standalone="no"?>
<!DOCTYPE svg PUBLIC "-//W3C//DTD SVG 20010904//EN"
 "http://www.w3.org/TR/2001/REC-SVG-20010904/DTD/svg10.dtd">
<svg version="1.0" xmlns="http://www.w3.org/2000/svg"
 width="700.000000pt" height="700.000000pt" viewBox="0 0 700.000000 700.000000"
 preserveAspectRatio="xMidYMid meet">
<metadata>
Created by potrace 1.11, written by Peter Selinger 2001-2013
</metadata>
<g transform="translate(0.000000,700.000000) scale(0.100000,-0.100000)"
fill="#000000" stroke="none">
<path d="M1748 5249 l-1748 -1749 878 -877 c482 -483 1270 -1271 1749 -1751
l873 -872 1750 1750 1750 1750 -1750 1750 c-962 962 -1751 1750 -1752 1749 -2
0 -789 -788 -1750 -1750z m1326 -605 c1 -442 -3 -708 -9 -712 -10 -6 -1405
-10 -1419 -4 -4 3 313 326 705 718 392 392 715 711 718 709 2 -3 5 -323 5
-711z m1791 -2074 c-511 -511 -931 -927 -934 -924 -6 6 -8 3684 -2 3703 2 7
389 -372 935 -918 l931 -931 -930 -930z m-1800 501 c7 -1 9 -243 8 -708 0
-390 -2 -712 -2 -718 -1 -5 -323 312 -716 705 -393 393 -710 717 -706 720 7 4
1377 5 1416 1z"/>
</g>
</svg>
